<svg xmlns="http://www.w3.org/2000/svg" viewBox="0 0 256 256" fill="none">
  <!-- Background with responsive color for light/dark mode -->
  <rect width="256" height="256" rx="60" fill="currentColor" class="text-primary dark:text-primary" />
  
  <!-- T-shirt shape -->
  <path d="M178 60h-36l-4 14h-20l-4-14H78c-3 0-5 3-4 6l12 32c1 2 3 3 5 3h10v84c0 3 3 6 6 6h48c3 0 6-3 6-6v-84h10c2 0 4-1 5-3l12-32c1-3-1-6-4-6z" fill="white" />
  
  <!-- Brand name on shirt -->
  <path d="M128 116c-8 0-14 1-19 4-5 3-7 7-7 12 0 4 1 7 4 9 3 2 7 4 12 5 4 1 7 2 9 3 2 1 3 2 3 4 0 1-1 3-2 4-1 1-3 1-6 1-4 0-6-1-8-2-2-1-3-3-3-6h-10c0 5 2 9 5 12 4 3 9 4 16 4 7 0 13-1 17-4 4-3 6-7 6-12 0-4-1-7-4-9-2-2-6-4-11-5-4-1-7-2-9-3-2-1-3-2-3-4 0-1 1-2 2-3 1-1 3-2 6-2 3 0 5 1 7 2 2 1 3 3 3 5h10c0-4-2-8-5-11-3-3-8-4-15-4z" fill="#111" />

  <!-- Pyuto text -->
  <path d="M70 191h4c2 0 3 0 4 1s2 2 2 4c0 2-1 3-2 4-1 1-2 1-4 1h-1v3h-3v-13zm3 7c1 0 2 0 2-1 1 0 1-1 1-2s0-1-1-2c0 0-1-1-2-1h-1v6h1z" fill="white" />
  <path d="M92 197c0 1-0 2-1 3-0 1-1 2-2 3-1 1-2 1-4 1s-3-0-4-1c-1-1-2-2-2-3-1-1-1-2-1-3v-1c0-1 0-2 1-3 0-1 1-2 2-3 1-1 2-1 4-1s3 0 4 1c1 1 2 2 2 3 1 1 1 2 1 3v1zm-3-1c0-1-0-2-0-3-0-1-1-1-1-2-1-0-1-1-2-1-1 0-2 0-2 1-1 0-1 1-2 2-0 1-0 2-0 3v1c0 1 0 2 0 3 0 1 1 1 2 2 0 0 1 1 2 1 1 0 1-0 2-1 1-0 1-1 1-2 0-1 0-2 0-3v-1z" fill="white" />
  <path d="M105 201h3v3h-10v-3h3v-7h-3v-3h7v10z" fill="white" />
  <path d="M115 191h8v3h-5v2h5v3h-5v5h-3v-13z" fill="white" />
  <path d="M133 197c0 1-0 2-1 3-0 1-1 2-2 3-1 1-3 1-4 1-2 0-4-0-5-2-1-1-2-2-2-4h3c0 1 1 2 1 2 1 1 2 1 3 1 1 0 2-0 2-1 1-0 1-1 1-2 0-1-0-1-1-2-0-0-1-0-2-0h-2v-2h2c1 0 1-0 2-1 0-0 1-1 1-1 0-1-0-1-1-1-0-0-1-1-2-1-1 0-2 0-2 1-1 0-1 1-2 2h-3c0-1 0-2 1-3 1-1 1-2 2-2 1-1 2-1 4-1 1 0 2 0 3 0 1 0 2 1 3 2 1 1 1 2 1 3 0 1-0 2-1 2-0 1-1 1-2 1 1 0 2 1 3 1 0 1 1 2 1 3z" fill="white" />
  
  <!-- Decorative stitch lines on shirt collar -->
  <path d="M114 65h28M114 70h28" stroke="white" stroke-width="2" stroke-linecap="round" />
</svg> 